<svg width="1332" height="431" viewBox="0 0 1332 431" fill="none" xmlns="http://www.w3.org/2000/svg">
<path d="M694.825 404.127C693.452 404.127 692.077 403.899 690.476 403.441C689.104 402.983 687.96 402.526 687.045 401.839L689.333 397.95C690.02 398.865 690.934 399.322 691.85 400.009C692.994 400.467 693.909 400.695 695.053 400.695C696.654 400.695 698.485 400.009 700.316 398.637C702.146 397.265 703.746 395.662 704.892 393.602C706.036 391.543 706.722 389.713 706.722 387.882C706.722 386.281 706.265 384.678 705.35 382.849L686.586 347.839H693.452L710.613 381.018L726.857 347.839H730.746L710.613 389.255C705.806 399.322 700.545 404.127 694.825 404.127ZM676.062 389.255C672.63 389.255 670.113 388.339 668.512 386.281C666.909 384.221 666.222 381.246 666.222 377.127V351.271H658.901L660.045 348.298H666.222L669.196 336.857H672.172V348.298H683.613L682.696 351.271H672.401V378.501C672.401 381.018 672.857 383.077 673.774 384.45C674.688 385.594 676.062 386.281 678.121 386.281C679.952 386.281 682.01 385.822 683.841 384.678V387.882C681.325 388.797 678.806 389.255 676.062 389.255ZM630.07 389.255C624.808 389.255 620.461 387.882 617.486 385.137C614.512 382.39 612.908 378.501 612.908 373.467V348.069H618.858V374.382C618.858 378.045 620.002 381.018 622.062 383.077C624.121 385.137 627.096 386.051 630.986 386.051C635.333 386.051 638.994 384.678 641.74 381.933C644.486 379.187 645.858 375.526 645.858 370.95V348.069H651.808V388.339H645.858V381.018C644.486 383.534 642.426 385.594 639.681 386.967C636.934 388.569 633.732 389.255 630.07 389.255ZM581.333 386.281C583.85 386.281 586.368 385.594 588.656 384.45C590.944 383.077 592.545 381.475 593.918 379.415C595.292 377.127 595.977 374.839 595.977 372.323V367.061H585.224C580.189 367.061 576.3 367.746 573.782 369.349C571.266 370.95 570.121 373.467 570.121 376.899C570.121 380.102 571.037 382.39 573.096 383.993C574.698 385.365 577.444 386.281 581.333 386.281ZM579.732 389.255C574.469 389.255 570.58 388.111 567.833 386.051C565.088 383.993 563.714 380.789 563.714 376.899C563.714 372.781 565.317 369.577 568.749 367.289C572.181 365.001 576.986 363.857 583.393 363.857H595.749V360.882C595.749 357.45 594.605 354.933 592.545 353.102C590.486 351.271 587.282 350.357 583.164 350.357C579.274 350.357 576.3 351.271 574.012 352.875C571.724 354.475 570.35 356.993 569.893 359.967H564.858C565.317 355.849 567.376 352.645 570.35 350.586C573.554 348.298 577.673 347.382 582.936 347.382C588.884 347.382 593.232 348.755 596.436 351.271C599.638 353.789 601.24 357.221 601.24 362.026V375.526C601.24 380.102 601.698 384.678 602.384 388.797H596.664C595.977 386.281 595.749 383.765 595.52 381.246C592.545 386.509 587.282 389.255 579.732 389.255ZM534.198 350.357C529.85 350.357 526.189 351.73 523.673 354.246C521.156 356.765 519.554 360.195 518.868 364.771H549.529C548.842 360.195 547.241 356.534 544.494 354.246C541.978 351.73 538.545 350.357 534.198 350.357ZM534.198 386.051C538.088 386.051 541.292 385.137 544.037 383.306C546.782 381.475 548.613 378.958 549.3 375.983H554.562C553.418 380.102 551.13 383.306 547.469 385.822C543.808 388.111 539.461 389.255 534.426 389.255C530.08 389.255 526.189 388.339 522.986 386.738C519.782 384.907 517.266 382.619 515.436 379.415C513.605 376.213 512.918 372.551 512.918 368.433C512.918 364.314 513.834 360.425 515.436 357.45C517.266 354.246 519.782 351.73 522.986 350.127C526.189 348.298 530.08 347.611 534.426 347.611C540.833 347.611 545.868 349.442 549.529 353.102C553.189 356.765 555.249 361.797 555.249 368.205H518.868V368.662C518.868 374.154 520.241 378.501 522.986 381.705C525.504 384.45 529.393 386.051 534.198 386.051ZM482.944 386.281C485.918 386.281 488.665 385.594 491.181 383.993C493.469 382.39 495.3 380.331 496.673 377.586C498.046 374.839 498.732 371.637 498.732 367.975C498.732 362.713 497.36 358.365 494.613 355.162C491.868 351.958 488.206 350.357 483.63 350.357C480.428 350.357 477.681 351.043 475.393 352.645C472.876 354.018 471.046 356.306 469.902 359.051C468.529 361.797 467.842 364.771 467.842 368.433C467.842 371.865 468.529 375.069 469.673 377.814C471.046 380.559 472.876 382.619 475.165 383.993C476.994 385.365 479.741 386.281 482.944 386.281ZM484.088 389.255C480.198 389.255 476.994 388.569 474.021 386.967C471.274 385.365 468.986 383.306 467.385 380.331V388.339H461.436V332.281H467.385V356.077C468.986 353.331 471.274 351.271 474.249 349.67C477.224 348.069 480.656 347.382 484.546 347.382C490.724 347.382 495.529 349.213 499.19 353.102C502.85 356.765 504.681 362.026 504.681 368.433C504.681 372.551 503.766 376.442 502.164 379.415C500.562 382.619 498.274 385.137 495.072 386.738C491.868 388.339 488.206 389.255 484.088 389.255Z" fill="white"/>
<path d="M851.102 386.281C854.074 386.281 856.822 385.593 859.342 383.993C861.622 382.39 863.462 380.332 864.836 377.586C866.209 374.84 866.889 371.637 866.889 367.976C866.889 362.713 865.516 358.365 862.769 355.162C860.021 351.958 856.368 350.357 851.796 350.357C848.581 350.357 845.836 351.044 843.556 352.644C841.034 354.018 839.209 356.306 838.062 359.052C836.688 361.797 835.996 364.772 835.996 368.433C835.996 371.864 836.688 375.069 837.836 377.813C839.209 380.56 841.034 382.62 843.329 383.993C845.382 385.365 848.129 386.281 851.102 386.281ZM852.248 389.254C848.354 389.254 845.156 388.569 842.182 386.968C839.436 385.365 837.141 383.306 835.542 380.332V388.34H829.596V332.281H835.542V356.077C837.141 353.332 839.436 351.272 842.408 349.67C845.382 348.069 848.808 347.382 852.701 347.382C858.889 347.382 863.688 349.213 867.342 353.102C871.009 356.764 872.836 362.026 872.836 368.433C872.836 372.552 871.929 376.442 870.329 379.416C868.716 382.62 866.436 385.137 863.236 386.738C860.021 388.34 856.368 389.254 852.248 389.254ZM797.102 386.281C799.622 386.281 802.141 385.593 804.421 384.45C806.716 383.077 808.316 381.476 809.688 379.416C811.062 377.128 811.741 374.84 811.741 372.324V367.061H800.996C795.956 367.061 792.074 367.746 789.556 369.349C787.034 370.95 785.889 373.468 785.889 376.9C785.889 380.102 786.808 382.39 788.861 383.993C790.929 385.593 793.209 386.281 797.102 386.281ZM795.276 389.254C790.009 389.254 786.116 388.112 783.368 386.052C780.622 383.993 779.262 380.789 779.262 376.9C779.262 372.781 780.861 369.577 784.289 367.289C787.716 365.001 792.528 363.857 798.929 363.857H811.289V360.882C811.289 357.45 810.141 354.933 808.088 353.102C806.021 351.272 802.822 350.357 798.701 350.357C794.808 350.357 791.836 351.272 789.556 352.874C787.262 354.476 785.889 356.993 785.436 359.968H780.396C780.861 355.849 782.914 352.644 785.889 350.586C789.088 348.298 793.209 347.382 798.474 347.382C804.421 347.382 808.769 348.754 811.982 351.272C815.182 353.789 816.782 357.221 816.782 362.026V375.526C816.782 380.102 817.236 384.678 817.929 388.797H812.209C811.516 386.281 811.289 383.764 811.062 381.246C808.316 386.509 802.822 389.254 795.276 389.254ZM760.716 332.281H766.676V388.34H760.716V332.281Z" fill="white"/>
<path d="M859.786 39.6143L861.399 38.013C877.414 21.9956 903.493 21.9956 919.747 38.013L889.081 68.6743L859.786 39.6143Z" fill="#F18D54"/>
<path d="M1236.65 155.603C1236.19 151.712 1235.04 147.593 1232.99 143.475C1231.16 139.356 1227.95 135.467 1223.84 132.035C1219.72 128.603 1214 125.856 1207.36 123.797C1200.49 121.509 1192.03 120.365 1181.73 120.365C1172.12 120.365 1163.88 121.509 1156.79 124.027C1149.69 126.315 1143.97 129.289 1139.17 132.949C1134.6 136.381 1130.93 140.272 1128.19 144.391C1125.67 148.509 1123.84 152.169 1123.16 155.603H1236.65ZM1266.16 241.179C1253.12 245.525 1240.31 248.5 1227.27 250.331C1214.45 252.161 1201.19 253.305 1187.68 253.305C1170.29 253.305 1154.96 251.475 1141.47 247.813C1127.96 244.152 1116.75 238.661 1107.37 231.568C1098.21 224.475 1091.12 215.78 1086.32 205.712C1081.51 195.416 1079 183.975 1079 170.932C1079 159.035 1081.51 147.823 1086.32 137.755C1091.12 127.459 1098.21 118.535 1107.13 110.984C1116.07 103.433 1127.04 97.4839 1139.63 93.1358C1152.21 88.7892 1166.4 86.7292 1181.96 86.7292C1196.37 86.7292 1209.41 88.7892 1221.32 92.6785C1233.21 96.5679 1243.51 102.289 1251.97 109.84C1260.67 117.391 1267.31 126.772 1271.88 137.984C1276.69 149.196 1278.97 162.009 1278.97 176.424V186.949H1122.93C1124.31 191.983 1126.59 196.56 1129.79 200.679C1133 204.797 1137.35 208.457 1142.84 211.204C1148.32 214.179 1154.96 216.467 1162.97 218.068C1170.97 219.669 1180.59 220.585 1191.57 220.585C1199.35 220.585 1207.13 220.128 1214.68 219.212C1222.23 218.297 1229.32 216.924 1235.73 215.323C1242.37 213.72 1248.09 211.891 1253.35 210.06C1258.61 208.229 1262.96 206.169 1266.16 204.339V241.179Z" fill="#F18D54"/>
<path d="M865.747 249.415L825.241 139.583L781.534 249.415H737.147L800.761 91.0764H848.119L889.534 197.472L930.719 91.0764H978.094L1041.69 249.415H997.307L954.521 141.872L913.107 249.415H865.747Z" fill="#F18D54"/>
<path d="M717.013 90.6203L757.521 200.679L737.148 249.415L693.217 142.56L652.032 248.956H604.667L541.057 90.6203H585.448L628.236 198.162L669.651 90.6203H717.013ZM464.177 155.603C463.719 151.712 462.575 147.594 460.515 143.475C458.684 139.356 455.483 135.467 451.363 132.035C447.244 128.603 441.524 125.856 434.888 123.798C428.024 121.51 419.557 120.366 409.263 120.366C399.652 120.366 391.413 121.51 384.32 124.027C377.228 126.543 371.508 129.29 366.703 132.95C362.125 136.382 358.464 140.272 355.719 144.391C353.203 148.51 351.372 152.17 350.685 155.603H464.177ZM493.692 241.178C480.652 245.526 467.839 248.5 454.795 250.331C441.983 252.162 428.709 253.306 415.209 253.306C397.82 253.306 382.489 251.475 368.989 247.814C355.489 244.152 344.279 238.662 334.899 231.567C325.744 224.475 318.652 215.78 313.847 205.712C309.041 195.416 306.755 183.747 306.755 170.932C306.755 159.035 309.269 147.823 314.075 137.755C318.88 127.459 325.973 118.535 334.899 110.984C343.82 103.434 354.804 97.4843 367.388 93.1363C379.973 88.7897 394.159 86.7297 409.719 86.7297C424.133 86.7297 437.177 88.7897 449.075 92.679C460.972 96.5683 471.269 102.29 479.736 109.84C488.431 117.391 495.067 126.772 499.643 137.984C504.448 149.196 506.736 162.01 506.736 176.424V186.95H350.685C352.057 191.983 354.347 196.56 357.549 200.679C360.752 204.798 365.1 208.458 370.593 211.204C376.083 214.179 382.719 216.467 390.728 218.067C398.736 219.67 408.347 220.586 419.328 220.586C427.108 220.586 434.888 220.127 442.439 219.212C449.989 218.298 457.083 216.924 463.489 215.323C470.125 213.72 475.847 211.891 481.108 210.06C486.372 208.23 490.719 206.17 493.923 204.339V241.178H493.692ZM202.644 248.956L95.7893 140.272V248.956H53V90.6203H99.4507L206.304 199.763V90.6203H248.863V248.956H202.644Z" fill="white"/>
<path d="M599.009 55.8184C615.025 71.8344 641.11 72.0637 657.355 55.8184L628.297 26.7584L599.009 55.8184Z" fill="white"/>
</svg>
